<?xml version="1.0" encoding="iso-8859-1"?>
<!-- Generator: Adobe Illustrator 19.0.0, SVG Export Plug-In . SVG Version: 6.00 Build 0)  -->
<svg version="1.1" id="Capa_1" xmlns="http://www.w3.org/2000/svg" xmlns:xlink="http://www.w3.org/1999/xlink" x="0px" y="0px"
	 viewBox="0 0 512 512" style="enable-background:new 0 0 512 512;" xml:space="preserve">
<path style="fill:#FFB066;" d="M184.871,179.182c-12.591-9.878-27.231-16.953-42.924-20.093c-6.075-1.216-12.295-1.886-18.627-1.886
	c-13.71,0-26.897,1.407-39.216,4.005c-24.465,5.158-49.972,0.672-70.876-13.046l-0.13-0.086C7.474,144.385,0,148.419,0,155.147
	v122.085c0,34.467,35.768,63.681,85.239,73.769c20.69,4.219,42.17,2.207,61.898-5.324l0,0c4.06-1.55,8.199-2.828,12.391-3.832
	c23.195-5.558,47.668-0.212,66.939,13.843l0.029,0.021c17.58,12.822,41.428,12.822,59.008,0l0,0
	c19.873-14.495,45.22-19.585,69.014-13.351c3.493,0.915,6.947,2.022,10.345,3.319l0,0c19.728,7.531,41.207,9.544,61.898,5.324
	C476.232,340.912,512,311.698,512,277.232V155.147c0-6.727-7.474-10.762-13.098-7.071l-0.13,0.086
	c-20.904,13.718-46.411,18.204-70.876,13.046c-12.319-2.597-25.506-4.005-39.216-4.005c-6.332,0-12.552,0.67-18.627,1.886
	c-15.693,3.14-30.332,10.215-42.924,20.093L256,234.985L184.871,179.182z"/>
<path style="fill:#FFEB6B;" d="M256,234.985l-71.129-55.803c-12.591-9.878-27.231-16.953-42.924-20.093
	c-6.075-1.216-12.295-1.886-18.627-1.886c-13.71,0-26.897,1.407-39.216,4.005c-24.465,5.158-49.972,0.672-70.876-13.046l-0.13-0.085
	C7.474,144.385,0,148.419,0,155.147v122.085c0,34.467,35.768,63.681,85.239,73.77c20.69,4.219,42.17,2.207,61.898-5.324
	c4.06-1.55,8.199-2.828,12.391-3.832c23.195-5.558,47.668-0.212,66.939,13.843l0.029,0.021c9.075,6.619,19.821,9.819,30.512,9.603
	L256,234.985z"/>
<g>
	<path style="fill:#F2FFFF;" d="M190.148,257.308c4.708,4.412,3.266,12.19-2.711,14.62c-11.403,4.636-29.998,10.015-49.263,6.442
		c-19.265-3.573-34.695-15.262-43.677-23.679c-4.708-4.412-3.266-12.19,2.711-14.62c11.403-4.636,29.998-10.015,49.263-6.442
		S181.166,248.892,190.148,257.308z"/>
	<path style="fill:#F2FFFF;" d="M321.852,257.308c-4.708,4.412-3.266,12.19,2.711,14.62c11.403,4.636,29.998,10.015,49.263,6.442
		c19.265-3.573,34.695-15.262,43.677-23.679c4.708-4.412,3.266-12.19-2.711-14.62c-11.403-4.636-29.998-10.015-49.263-6.442
		S330.834,248.892,321.852,257.308z"/>
</g>
<g>
</g>
<g>
</g>
<g>
</g>
<g>
</g>
<g>
</g>
<g>
</g>
<g>
</g>
<g>
</g>
<g>
</g>
<g>
</g>
<g>
</g>
<g>
</g>
<g>
</g>
<g>
</g>
<g>
</g>
</svg>
